<svg width="24" height="25" viewBox="0 0 24 25" fill="none" xmlns="http://www.w3.org/2000/svg">
<path d="M7.8 18.5C6.95 18.5 6.1375 18.35 5.3625 18.05C4.5875 17.75 3.89167 17.3083 3.275 16.725C2.475 15.975 1.89583 15.0875 1.5375 14.0625C1.17917 13.0375 1 11.975 1 10.875C1 9.575 1.31667 8.52083 1.95 7.7125C2.58333 6.90417 3.50833 6.5 4.725 6.5C4.95833 6.5 5.17917 6.52083 5.3875 6.5625C5.59583 6.60417 5.80833 6.66667 6.025 6.75L12 8.975L17.975 6.75C18.1917 6.66667 18.4042 6.60417 18.6125 6.5625C18.8208 6.52083 19.0417 6.5 19.275 6.5C20.4917 6.5 21.4167 6.90417 22.05 7.7125C22.6833 8.52083 23 9.575 23 10.875C23 11.975 22.8208 13.0375 22.4625 14.0625C22.1042 15.0875 21.525 15.975 20.725 16.725C20.1083 17.3083 19.4125 17.75 18.6375 18.05C17.8625 18.35 17.05 18.5 16.2 18.5C15.1 18.5 14.1667 18.25 13.4 17.75L12.25 17H11.75L10.6 17.75C9.83333 18.25 8.9 18.5 7.8 18.5ZM7.8 16.5C8.41667 16.5 8.99167 16.3542 9.525 16.0625C10.0583 15.7708 10.55 15.4167 11 15H13C13.45 15.4167 13.9417 15.7708 14.475 16.0625C15.0083 16.3542 15.5833 16.5 16.2 16.5C16.8 16.5 17.3792 16.3958 17.9375 16.1875C18.4958 15.9792 18.9917 15.6583 19.425 15.225C19.9917 14.6583 20.3958 13.9917 20.6375 13.225C20.8792 12.4583 21 11.675 21 10.875C21 10.1917 20.8583 9.62083 20.575 9.1625C20.2917 8.70417 19.8417 8.48333 19.225 8.5C19.175 8.5 18.9917 8.53333 18.675 8.6L12 11.1L5.325 8.6C5.24167 8.56667 5.15417 8.54167 5.0625 8.525C4.97083 8.50833 4.875 8.5 4.775 8.5C4.15833 8.5 3.70833 8.725 3.425 9.175C3.14167 9.625 3 10.1917 3 10.875C3 11.6917 3.12083 12.4833 3.3625 13.25C3.60417 14.0167 4.01667 14.6833 4.6 15.25C5.03333 15.6667 5.525 15.9792 6.075 16.1875C6.625 16.3958 7.2 16.5 7.8 16.5ZM9.025 15C9.64167 15 10.125 14.8625 10.475 14.5875C10.825 14.3125 11 13.9333 11 13.45C11 12.6333 10.4625 11.8542 9.3875 11.1125C8.3125 10.3708 7.175 10 5.975 10C5.35833 10 4.875 10.1375 4.525 10.4125C4.175 10.6875 4 11.0667 4 11.55C4 12.3667 4.5375 13.1458 5.6125 13.8875C6.6875 14.6292 7.825 15 9.025 15ZM8.875 13.5C8.24167 13.5 7.55417 13.2917 6.8125 12.875C6.07083 12.4583 5.63333 12.0333 5.5 11.6C5.58333 11.5667 5.67917 11.5375 5.7875 11.5125C5.89583 11.4875 6.00833 11.475 6.125 11.475C6.75833 11.475 7.44583 11.6875 8.1875 12.1125C8.92917 12.5375 9.36667 12.9667 9.5 13.4C9.41667 13.4333 9.32083 13.4583 9.2125 13.475C9.10417 13.4917 8.99167 13.5 8.875 13.5ZM14.975 15.025C16.175 15.025 17.3125 14.65 18.3875 13.9C19.4625 13.15 20 12.3667 20 11.55C20 11.0667 19.8292 10.6833 19.4875 10.4C19.1458 10.1167 18.6583 9.975 18.025 9.975C16.825 9.975 15.6875 10.35 14.6125 11.1C13.5375 11.85 13 12.6333 13 13.45C13 13.9333 13.175 14.3167 13.525 14.6C13.875 14.8833 14.3583 15.025 14.975 15.025ZM15.125 13.5C15.0083 13.5 14.9 13.4917 14.8 13.475C14.7 13.4583 14.6083 13.4333 14.525 13.4C14.6583 12.9667 15.0958 12.5417 15.8375 12.125C16.5792 11.7083 17.2667 11.5 17.9 11.5C18.0167 11.5 18.125 11.5083 18.225 11.525C18.325 11.5417 18.4167 11.5667 18.5 11.6C18.3667 12.0333 17.9292 12.4583 17.1875 12.875C16.4458 13.2917 15.7583 13.5 15.125 13.5Z" fill="#298E5F"/>
</svg>
