<svg width="23" height="22" viewBox="0 0 23 22" fill="none" xmlns="http://www.w3.org/2000/svg">
<path d="M11.5 21.9375C9.70117 21.9379 7.92999 21.4946 6.3434 20.6469C4.75681 19.7992 3.4038 18.5732 2.40423 17.0777C1.40466 15.5821 0.789389 13.8631 0.612933 12.0729C0.436477 10.2827 0.704282 8.47666 1.39262 6.81472C2.08096 5.15277 3.16858 3.68626 4.55913 2.5451C5.94967 1.40394 7.60022 0.623367 9.36452 0.272534C11.1288 -0.0782988 12.9524 0.01144 14.6738 0.5338C16.3951 1.05616 17.961 1.99502 19.2328 3.26719C19.3552 3.38912 19.4523 3.53401 19.5185 3.69355C19.5848 3.85309 19.6189 4.02413 19.6189 4.19688C19.6189 4.36962 19.5848 4.54066 19.5185 4.7002C19.4523 4.85974 19.3552 5.00463 19.2328 5.12656C18.9838 5.36844 18.6503 5.50373 18.3031 5.50373C17.956 5.50373 17.6225 5.36844 17.3735 5.12656C16.6054 4.3505 15.6904 3.73515 14.682 3.31639C13.6736 2.89762 12.5919 2.68384 11.5 2.6875C9.9123 2.68862 8.3581 3.14442 7.02126 4.00099C5.68442 4.85757 4.62086 6.07909 3.95637 7.52107C3.29188 8.96306 3.05426 10.5652 3.27161 12.138C3.48897 13.7107 4.15221 15.1884 5.18288 16.3961C6.21356 17.6038 7.56855 18.4911 9.0876 18.953C10.6067 19.4149 12.2262 19.4321 13.7547 19.0025C15.2832 18.573 16.6568 17.7147 17.7129 16.5291C18.7689 15.3435 19.4634 13.8803 19.7141 12.3125H11.5C11.1519 12.3125 10.8181 12.1742 10.5719 11.9281C10.3258 11.6819 10.1875 11.3481 10.1875 11C10.1875 10.6519 10.3258 10.3181 10.5719 10.0719C10.8181 9.82578 11.1519 9.6875 11.5 9.6875H21.125C21.4731 9.6875 21.807 9.82578 22.0531 10.0719C22.2992 10.3181 22.4375 10.6519 22.4375 11C22.4317 13.899 21.2775 16.6777 19.2276 18.7276C17.1777 20.7775 14.399 21.9317 11.5 21.9375Z" fill="#E05D43"/>
</svg>
