<svg width="20" height="20" viewBox="0 0 20 20" fill="none" xmlns="http://www.w3.org/2000/svg">
    <g clip-path="url(#clip0_466_6796)">
        <path d="M17.9556 18.8018L16.7416 14.374L17.2319 11.2537C17.2908 10.8788 17.2799 10.4961 17.1999 10.1251L15.9783 4.46575C15.8401 3.82384 15.2078 3.41548 14.5659 3.5536C14.0705 3.6602 12.7087 3.95325 12.4932 3.99962C11.8513 4.13774 11.443 4.77009 11.5811 5.412L11.7146 6.03224L12.7477 4.91966L11.7931 6.78274L9.19448 7.75423C9.23772 7.51083 9.30429 7.23614 9.40632 6.95263C9.63061 6.32958 10.0266 5.66454 10.7246 5.19794C11.592 4.61825 12.0869 3.86579 12.3692 3.19595C13.1503 2.99263 13.6763 2.23524 13.569 1.41419C13.4527 0.52458 12.6373 -0.102373 11.7477 0.0138767C10.8581 0.130127 10.2311 0.945556 10.3474 1.83517C10.3482 1.842 10.3496 1.84864 10.3506 1.85544C10.1027 2.39192 9.69952 3.52372 9.52585 5.46325C9.06808 6.0302 8.81218 6.66876 8.67003 7.22782C8.58944 7.54478 8.54538 7.83599 8.52155 8.07419C8.44679 8.14587 8.38753 8.2311 8.34612 8.32438C8.18866 8.14349 8.01144 8.0529 7.85812 8.09895C7.67601 8.15364 7.59796 8.37411 7.57405 8.56517C7.45905 8.49267 7.32792 8.44157 7.1853 8.41837C7.04007 8.3947 5.57116 8.15579 5.348 8.1195C4.77897 8.027 4.24022 8.41278 4.15015 8.98224C3.61491 12.3646 3.49757 13.1256 3.39116 14.0744C3.36253 14.344 3.46202 14.5907 3.63815 14.7633H2.67507C2.30804 14.7633 2.0105 15.0608 2.0105 15.4279V19.3353C2.0105 19.7024 2.30804 19.9999 2.67507 19.9999C3.0421 19.9999 3.33964 19.7024 3.33964 19.3353V18.2425H5.97159V19.3353C5.97159 19.7024 6.26913 19.9999 6.63616 19.9999C7.00319 19.9999 7.30073 19.7024 7.30073 19.3353L7.30515 15.2414L8.07269 15.3001L7.47503 19.0266C7.40159 19.4847 7.71339 19.9156 8.17147 19.9891C8.62952 20.0625 9.0605 19.7508 9.13401 19.2927L9.87616 14.6651C9.90679 14.4743 9.86952 14.2807 9.77479 14.1152C9.75433 14.0795 9.73218 14.0446 9.70636 14.0119C9.57835 13.8495 9.39558 13.741 9.1939 13.7051C9.27831 13.6326 9.34694 13.5391 9.39003 13.4281C9.52999 13.0677 9.35124 12.6621 8.99085 12.5222L6.73339 11.6456L6.24647 9.42849L7.06686 11.0241L7.77429 11.2988L7.97284 10.0781C8.01487 10.0599 8.05589 10.0411 8.09491 10.0214C8.26792 10.1647 8.47011 10.2056 8.61413 10.0383C8.71538 9.92075 8.76808 9.7177 8.76394 9.47528C8.78487 9.44829 8.80464 9.42145 8.82323 9.39474C8.99476 9.45071 9.17597 9.44661 9.3439 9.3838L12.6326 8.15435C12.817 8.08544 12.969 7.95009 13.0588 7.77485L14.1528 5.63954L13.661 8.08341C13.5599 8.58626 13.138 8.68794 12.8696 8.78817L12.3495 8.98263L12.8925 11.3689L11.9269 14.0016C11.8656 14.1688 11.8526 14.35 11.8895 14.5241L12.89 19.2486C12.9983 19.76 13.5005 20.0875 14.013 19.9791C14.5249 19.8707 14.852 19.3679 14.7436 18.856L13.7996 14.3983C15.1547 10.7035 15.0708 10.9342 15.0823 10.8977L15.3673 10.8364L14.8382 14.2861C14.8181 14.4177 14.8258 14.552 14.861 14.6803L16.1284 19.3029C16.2668 19.8077 16.7884 20.1044 17.2925 19.966C17.797 19.8276 18.0939 19.3065 17.9556 18.8018ZM10.7019 2.65435C10.9436 2.94864 11.2847 3.15329 11.6664 3.2229C11.1581 4.22396 10.4585 4.61837 10.2247 4.79188C10.3532 3.83095 10.5378 3.13169 10.7019 2.65435ZM5.97159 17.3565H3.33964V16.0924H5.97159V17.3565ZM7.90378 13.6022L5.56554 13.382C5.10702 13.3388 4.75726 12.9517 4.7619 12.4912C4.76198 12.4818 4.76226 12.4724 4.76261 12.4629L4.87897 9.72907L5.4464 12.3128C5.49667 12.5418 5.65823 12.7304 5.87683 12.8152L7.90378 13.6022Z" fill="#CF9318"/>
        <path d="M6.82352 7.56207C7.6769 7.56207 8.36871 6.87026 8.36871 6.01688C8.36871 5.16349 7.6769 4.47168 6.82352 4.47168C5.97013 4.47168 5.27832 5.16349 5.27832 6.01688C5.27832 6.87026 5.97013 7.56207 6.82352 7.56207Z" fill="#CF9318"/>
    </g>
    <defs>
        <clipPath id="clip0_466_6796">
            <rect width="20" height="20" fill="white"/>
        </clipPath>
    </defs>
</svg>
