<svg width="36" height="36" viewBox="0 0 36 36" fill="none" xmlns="http://www.w3.org/2000/svg">
<path d="M5.16666 27.3334V24.0667C5.16666 23.4056 5.3368 22.7979 5.67707 22.2438C6.01735 21.6896 6.46943 21.2667 7.03332 20.975C8.23888 20.3722 9.46388 19.9202 10.7083 19.6188C11.9528 19.3174 13.2167 19.1667 14.5 19.1667C15.7833 19.1667 17.0472 19.3174 18.2917 19.6188C19.5361 19.9202 20.7611 20.3722 21.9667 20.975C22.5305 21.2667 22.9826 21.6896 23.3229 22.2438C23.6632 22.7979 23.8333 23.4056 23.8333 24.0667V27.3334H5.16666ZM26.1667 27.3334V23.8334C26.1667 22.9778 25.9285 22.1563 25.4521 21.3688C24.9757 20.5813 24.3 19.9056 23.425 19.3417C24.4167 19.4584 25.35 19.6577 26.225 19.9396C27.1 20.2215 27.9167 20.5667 28.675 20.975C29.375 21.3639 29.9097 21.7965 30.2792 22.2729C30.6486 22.7493 30.8333 23.2695 30.8333 23.8334V27.3334H26.1667ZM14.5 18C13.2167 18 12.118 17.5431 11.2042 16.6292C10.2903 15.7153 9.83332 14.6167 9.83332 13.3334C9.83332 12.05 10.2903 10.9514 11.2042 10.0375C12.118 9.12363 13.2167 8.66669 14.5 8.66669C15.7833 8.66669 16.8819 9.12363 17.7958 10.0375C18.7097 10.9514 19.1667 12.05 19.1667 13.3334C19.1667 14.6167 18.7097 15.7153 17.7958 16.6292C16.8819 17.5431 15.7833 18 14.5 18ZM26.1667 13.3334C26.1667 14.6167 25.7097 15.7153 24.7958 16.6292C23.8819 17.5431 22.7833 18 21.5 18C21.2861 18 21.0139 17.9757 20.6833 17.9271C20.3528 17.8785 20.0805 17.825 19.8667 17.7667C20.3917 17.1445 20.7951 16.4542 21.0771 15.6959C21.359 14.9375 21.5 14.15 21.5 13.3334C21.5 12.5167 21.359 11.7292 21.0771 10.9709C20.7951 10.2125 20.3917 9.52224 19.8667 8.90002C20.1389 8.8028 20.4111 8.7396 20.6833 8.71044C20.9555 8.68127 21.2278 8.66669 21.5 8.66669C22.7833 8.66669 23.8819 9.12363 24.7958 10.0375C25.7097 10.9514 26.1667 12.05 26.1667 13.3334ZM7.49999 25H21.5V24.0667C21.5 23.8528 21.4465 23.6584 21.3396 23.4834C21.2326 23.3084 21.0917 23.1722 20.9167 23.075C19.8667 22.55 18.8069 22.1563 17.7375 21.8938C16.668 21.6313 15.5889 21.5 14.5 21.5C13.4111 21.5 12.3319 21.6313 11.2625 21.8938C10.193 22.1563 9.13332 22.55 8.08332 23.075C7.90832 23.1722 7.76735 23.3084 7.66041 23.4834C7.55346 23.6584 7.49999 23.8528 7.49999 24.0667V25ZM14.5 15.6667C15.1417 15.6667 15.691 15.4382 16.1479 14.9813C16.6049 14.5243 16.8333 13.975 16.8333 13.3334C16.8333 12.6917 16.6049 12.1424 16.1479 11.6854C15.691 11.2285 15.1417 11 14.5 11C13.8583 11 13.309 11.2285 12.8521 11.6854C12.3951 12.1424 12.1667 12.6917 12.1667 13.3334C12.1667 13.975 12.3951 14.5243 12.8521 14.9813C13.309 15.4382 13.8583 15.6667 14.5 15.6667Z" fill="#2E2E2E"/>
</svg>
